<svg width="208" height="23" viewBox="0 0 208 23" fill="none" xmlns="http://www.w3.org/2000/svg">
<path d="M8.57054 22.5303C3.52432 21.3285 0 16.8499 0 11.6387C0 5.46658 5.00449 0.445091 11.1557 0.445091C17.3069 0.445091 22.3114 5.46658 22.3114 11.6387C22.3114 15.4791 20.3837 19.0077 17.1547 21.0781L16.184 19.5539C18.8923 17.8178 20.509 14.8586 20.509 11.6387C20.509 6.46348 16.3134 2.25358 11.1557 2.25358C5.99815 2.25358 1.80237 6.46348 1.80237 11.6387C1.80237 16.008 4.75673 19.7631 8.98675 20.7703L8.57054 22.5303Z" fill="black"/>
<path d="M21.4102 22.5544C15.259 22.5544 10.2545 17.533 10.2545 11.3608C10.2545 7.52099 12.1824 3.9922 15.4112 1.9219L16.382 3.44604C13.6736 5.18219 12.0569 8.14089 12.0569 11.3608C12.0569 16.5361 16.2527 20.7459 21.4102 20.7459C26.5679 20.7459 30.7635 16.5361 30.7635 11.3608C30.7635 6.99194 27.8092 3.23681 23.5792 2.2292L23.9954 0.469259C29.0417 1.67163 32.5659 6.15002 32.5659 11.3608C32.5659 17.533 27.5614 22.5544 21.4102 22.5544Z" fill="black"/>
<path d="M41.925 2.26627H38.6593V20.7336H41.925C46.9612 20.7336 51.8142 19.6924 51.8142 11.4847C51.8142 3.27694 46.9612 2.26627 41.925 2.26627ZM41.9862 0.3981C49.0367 0.3981 53.9812 3.00122 53.9812 11.4847C53.9812 20.0293 49.0367 22.6018 41.9862 22.6018H36.6143V0.3981H41.9862Z" fill="black"/>
<path d="M56.852 2.26627V11.5152H61.705C65.3371 11.5152 68.3587 11.0864 68.3587 6.95194C68.3587 2.81745 65.3371 2.26627 61.705 2.26627H56.852ZM61.4303 0.3981C66.7107 0.3981 70.4954 1.65375 70.4954 6.95194C70.4954 12.3115 66.7107 13.414 61.4303 13.414H56.852V22.6018H54.807V0.3981H61.4303Z" fill="black"/>
<path d="M78.9638 0C83.3285 0 86.3807 2.14376 87.2048 5.94132H85.0682C84.3052 3.3688 82.1382 1.95999 78.7502 1.95999C76.522 1.95999 73.3783 2.84824 73.3783 5.75769C73.3783 7.99326 75.1791 9.09589 77.6514 9.67767L80.2764 10.2597C83.4506 10.9947 87.7237 12.2503 87.7237 16.5074C87.7237 20.7643 83.8474 23 79.5438 23C74.0192 23 70.9671 19.9068 70.4788 15.9255H72.6152C73.3783 19.478 75.8201 21.0399 79.4521 21.0399C81.8634 21.0399 85.5871 20.1518 85.5871 16.8442C85.5871 14.1491 82.9622 12.8628 79.8489 12.1891L77.0715 11.5764C74.1719 10.9335 71.2723 9.49403 71.2723 5.8495C71.2723 1.77636 75.3928 0 78.9638 0Z" fill="black"/>
<path d="M90.7 2.26627V11.5152H95.553C99.1852 11.5152 102.207 11.0864 102.207 6.95194C102.207 2.81745 99.1852 2.26627 95.553 2.26627H90.7ZM95.2783 0.3981C100.559 0.3981 104.343 1.65375 104.343 6.95194C104.343 12.3115 100.559 13.414 95.2783 13.414H90.7V22.6018H88.655V0.3981H95.2783Z" fill="black"/>
<path d="M121.012 0C125.376 0 128.429 2.14376 129.253 5.94132H127.116C126.353 3.36867 124.186 1.95999 120.798 1.95999C118.57 1.95999 115.426 2.8481 115.426 5.75755C115.426 7.99326 117.227 9.09575 119.699 9.67753L122.324 10.2596C125.499 10.9947 129.772 12.2503 129.772 16.5072C129.772 20.7643 125.895 23 121.592 23C116.067 23 113.015 19.9066 112.527 15.9255H114.663C115.426 19.4779 117.868 21.0399 121.5 21.0399C123.911 21.0399 127.635 20.1516 127.635 16.8442C127.635 14.1491 125.01 12.8627 121.897 12.189L119.119 11.5764C116.22 10.9333 113.32 9.4939 113.32 5.8495C113.32 1.77622 117.441 0 121.012 0Z" fill="black"/>
<path d="M136.464 2.29688H129.017V0.397963H145.957V2.29688H138.509V22.6018H136.464V2.29688Z" fill="black"/>
<path d="M149.14 0.398006V13.9959C149.14 18.7736 150.88 21.0399 155.58 21.0399C160.372 21.0399 162.081 18.4366 162.081 13.6284V0.398006H164.126V13.3834C164.126 19.8456 161.837 23 155.58 23C149.567 23 147.095 20.5193 147.095 13.6284V0.398006H149.14Z" fill="black"/>
<path d="M170.946 2.26627H167.68V20.7336H170.946C175.982 20.7336 180.836 19.6925 180.836 11.4847C180.836 3.27708 175.982 2.26627 170.946 2.26627ZM171.007 0.3981C178.058 0.3981 183.003 3.00136 183.003 11.4847C183.003 20.0293 178.058 22.6018 171.007 22.6018H165.635V0.3981H171.007Z" fill="black"/>
<path d="M186.39 22.6018H184.345V0.3981H186.39V22.6018Z" fill="black"/>
<path d="M197.867 21.04C202.384 21.04 205.833 17.5792 205.833 11.4848C205.833 5.39028 202.384 1.96012 197.867 1.96012C193.349 1.96012 189.9 5.39028 189.9 11.4848C189.9 17.5792 193.349 21.04 197.867 21.04ZM197.867 23C191.61 23 187.733 18.253 187.733 11.4848C187.733 4.71641 191.61 0.000135422 197.867 0.000135422C204.124 0.000135422 208 4.71641 208 11.4848C208 18.253 204.124 23 197.867 23Z" fill="black"/>
</svg>
